<svg width="24" height="24" viewBox="0 0 24 24" fill="none" xmlns="http://www.w3.org/2000/svg">
<path d="M11.465 16.9655C11.6371 16.9399 15.8033 16.3835 15.6298 12.5038C15.6138 12.1473 15.5694 11.823 15.5004 11.5291M11.465 16.9655C13.7485 16.8144 14.9089 15.9189 15.4282 14.8457M11.465 16.9655C11.1887 17.0066 10.9038 17.0033 10.6219 16.9586M15.5004 11.5291C15.414 11.1611 15.289 10.8406 15.1329 10.5639M15.5004 11.5291C15.8115 12.3918 15.9743 13.717 15.4282 14.8457M15.1329 10.5639C13.8538 8.29566 10.49 8.97329 9.20908 10.5639C8.70645 11.1885 7.65305 12.7727 8.1664 14.7529C8.4882 15.9943 9.53221 16.7859 10.6219 16.9586M15.1329 10.5639C15.6196 11.2484 16.3258 12.8514 15.7221 14.3051M15.4282 14.8457C15.549 14.6693 15.646 14.4883 15.7221 14.3051M10.6219 16.9586C12.0629 17.2096 15.1003 17.0302 15.7221 14.3051M7.68385 4.6576C7.97906 3.64902 8.7639 2.45351 10.5058 2.16288C13.1464 1.72228 15.396 2.06456 16.2124 4.58081C16.3917 5.13335 16.936 5.51941 17.5131 5.45909C19.764 5.22386 22.8899 5.72054 22.8899 9.10593C22.8899 14.0652 23.8807 22 19.9177 22H4.56136C2.5799 22 1.0938 21.0081 1.0938 18.5285C1.0938 16.0489 0.103064 5.63436 4.56136 5.63436H6.54283C7.08999 5.63436 7.52998 5.18328 7.68385 4.6576Z" stroke="black" stroke-linecap="round"/>
</svg>
