<svg width="24" height="24" viewBox="0 0 24 24" fill="none" xmlns="http://www.w3.org/2000/svg">
<path d="M6.58362 2.10899C6.70625 2.31943 6.8045 2.5632 6.87242 2.84312C6.92668 3.0667 6.96159 3.31334 6.97412 3.58447C7.11051 6.53543 3.83594 6.95862 3.70069 6.97808C3.48354 7.00931 3.25959 7.00682 3.03804 6.97284M6.58362 2.10899C5.57828 0.383778 2.93436 0.899182 1.92758 2.10899C1.53252 2.58411 0.704568 3.78904 1.10805 5.2952C1.36098 6.23934 2.18155 6.84146 3.03804 6.97284M6.58362 2.10899C6.58362 5.79619 4.2199 6.88789 3.03804 6.97284M14.5546 2.10899C14.6773 2.31943 14.7755 2.5632 14.8434 2.84312C14.8977 3.0667 14.9326 3.31334 14.9451 3.58447C15.0815 6.53543 11.807 6.95862 11.6717 6.97808C11.4546 7.00931 11.2306 7.00682 11.0091 6.97284M14.5546 2.10899C13.5493 0.383778 10.9054 0.899182 9.89859 2.10899C9.50354 2.58411 8.67558 3.78904 9.07907 5.2952C9.33199 6.23934 10.1526 6.84146 11.0091 6.97284M14.5546 2.10899C14.9983 4.99619 12.3758 6.55456 11.0091 6.97284M17.9384 12.5C19.7651 10.8333 23.3188 8.1 22.9203 10.5C22.4221 13.5 22.9203 19.0001 22.9203 19.5001C22.9203 20.0001 23.4185 21.0001 21.9239 20.0001C20.4293 19.0001 18.9348 18.0001 18.4366 17.5001M1.01422 11.9259C0.884967 10.906 1.58137 9.03109 5.40537 9.03109C10.3298 9.03109 15.801 8.53362 15.801 11.5184C15.801 14.5032 16.8953 23.4577 13.0652 22.9602C10.0011 22.5622 5.5874 22.7944 3.76356 22.9602C2.85175 23.126 1.02813 22.8607 1.02813 20.4728V12.1054C1.02813 12.0447 1.02185 11.9861 1.01422 11.9259Z" stroke="black" stroke-linecap="round"/>
</svg>
