<svg width="24" height="24" viewBox="0 0 24 24" fill="none" xmlns="http://www.w3.org/2000/svg">
<path d="M1.07592 9.33678C0.972797 12.5986 0.936945 16.6165 1.21736 18.5511C1.70944 21.9458 16.9646 20.9759 20.4093 20.4909C23.4878 20.0576 23.029 13.0399 22.8966 9.82175M1.07592 9.33678C1.11756 8.01951 1.17018 6.82557 1.21736 5.94201C1.21736 4.972 1.31578 3.0322 3.67787 3.0322C4.36858 3.03246 8.41366 2.72544 8.59874 4.00214C9.09084 7.39674 15.9803 5.45704 18.9329 5.45704C21.8855 5.45704 22.8697 6.42698 22.8697 8.85181C22.8697 9.10966 22.8808 9.43881 22.8966 9.82175M1.07592 9.33678C8.1944 9.33678 22.5244 9.43377 22.8966 9.82175" stroke="black" stroke-linecap="round"/>
</svg>
