<svg width="24" height="24" viewBox="0 0 24 24" fill="none" xmlns="http://www.w3.org/2000/svg">
<path d="M21.1406 1.49227C17.4302 0.765159 5.83938 0.910658 2.5 1.49235M22.532 2.21947C22.7375 8.44787 23.096 19.5438 22.9755 22.9999M22 23C20.5875 21.5815 7.44545 21.2267 4.62042 21.2267C1.79539 21.2267 1.06931 21.6809 1.44226 19.8082C1.74859 18.2701 1.52553 8.28149 1 1.87988M9.99297 13.1343C8.98102 12.936 5.81985 12.9756 4.9091 13.1343M10.3724 13.3326C10.4285 15.0312 10.5263 18.0574 10.4934 19M10.2273 19C9.84211 18.6131 6.25787 18.5164 5.4874 18.5164C4.71693 18.5164 4.5189 18.6402 4.62062 18.1295C4.70416 17.71 4.64333 14.9859 4.5 13.24M9.99297 4.13426C8.98102 3.93595 5.81985 3.97563 4.9091 4.13428M10.3724 4.33258C10.4285 6.03124 10.5263 9.05741 10.4934 9.99998M10.2273 10C9.84211 9.61313 6.25787 9.51639 5.4874 9.51639C4.71693 9.51639 4.5189 9.64024 4.62062 9.12952C4.70416 8.71003 4.64333 5.98586 4.5 4.23997M18.993 13.1343C17.981 12.936 14.8198 12.9756 13.9091 13.1343M19.3724 13.3326C19.4285 15.0312 19.5263 18.0574 19.4934 19M19.2273 19C18.8421 18.6131 15.2579 18.5164 14.4874 18.5164C13.7169 18.5164 13.5189 18.6402 13.6206 18.1295C13.7042 17.71 13.6433 14.9859 13.5 13.24M18.993 4.13426C17.981 3.93595 14.8198 3.97563 13.9091 4.13428M19.3724 4.33258C19.4285 6.03124 19.5263 9.05741 19.4934 9.99998M19.2273 10C18.8421 9.61313 15.2579 9.51639 14.4874 9.51639C13.7169 9.51639 13.5189 9.64024 13.6206 9.12952C13.7042 8.71003 13.6433 5.98586 13.5 4.23997" stroke="black" stroke-linecap="round"/>
</svg>
