<svg width="24" height="24" viewBox="0 0 24 24" fill="none" xmlns="http://www.w3.org/2000/svg">
<path d="M4.05108 9.46704C3.71989 12.8503 4.84596 19.6169 11.9998 19.6169M11.9998 19.6169C19.1537 19.6169 20.28 12.8503 19.949 9.46704M11.9998 19.6169V22.7997M11.9998 22.7997C10.3367 22.833 8.62784 22.9238 7.52901 23.0002C5.78682 23.1212 18.5 23.5 16.4714 23.0002C15.6351 22.7968 13.8457 22.7628 11.9998 22.7997ZM12.5 3.5C12.8333 3.73362 13.6 4.48078 14 5.60043M7.52867 12.7562V5.60043C7.5 2.49926 10.9841 -0.858232 14.4838 2.21715C16.4714 3.96368 16.4714 13.7261 14.4838 15.7501C13.0369 17.2236 8.57971 17.675 7.54899 12.9463C7.53542 12.884 7.52867 12.8198 7.52867 12.7562Z" stroke="black" stroke-linecap="round"/>
</svg>
