<svg width="24" height="24" viewBox="0 0 24 24" fill="none" xmlns="http://www.w3.org/2000/svg">
<path d="M23 4.77022C22.7786 2.03202 20.5519 1.04015 19.1325 1.00008C19.0753 0.998462 19.0214 1.0223 18.9832 1.06343L8.9913 11.8222C8.97235 11.8426 8.95808 11.8666 8.94943 11.8927L7.37533 16.6432M22.9058 4.86223L13.0506 16.1342C13.0264 16.1619 12.9948 16.1824 12.9592 16.1936L8.74505 17.523M12.9194 16.1765C12.668 15.0419 11.5627 12.8098 9.15091 12.2211M7.54986 17.9L7.26424 17.9901C7.10809 18.0393 6.95984 17.8971 7.0099 17.746L7.06885 17.5681M7.54986 17.9C7.59835 17.8945 7.57003 17.8204 7.06885 17.5681M7.54986 17.9L8.03968 17.7455M7.06885 17.5681L7.17337 17.2527M8.03968 17.7455C7.8454 17.5812 7.40015 17.2527 7.17337 17.2527M8.03968 17.7455L8.47258 17.6089M7.17337 17.2527L7.2889 16.904M8.47258 17.6089C8.21102 17.4003 7.6081 16.9673 7.2889 16.904M8.47258 17.6089L8.74505 17.523M7.2889 16.904L7.37533 16.6432M8.74505 17.523C8.59946 17.3117 8.12169 16.8399 7.37533 16.6432M20.0912 23C18.807 21.7104 6.85957 21.388 4.29133 21.388C1.72309 21.388 1.06301 21.8008 1.40206 20.0984C1.68054 18.7001 1.47776 9.61953 1 3.79989M11 3.00033C7.46706 3.0087 3.92423 3.17575 2.36365 3.44759M20.8617 13.5C20.9679 17.503 21.0378 21.2855 20.978 22.9999" stroke="black" stroke-linecap="round"/>
</svg>
