<svg width="24" height="24" viewBox="0 0 24 24" fill="none" xmlns="http://www.w3.org/2000/svg">
<path d="M18.0321 11.7128C18.7893 11.4298 18.7893 10.348 18.0321 10.065L12.9938 8.18183C12.7558 8.09285 12.5681 7.90327 12.48 7.66281L10.6156 2.57362C10.3355 1.80879 9.26453 1.80879 8.98435 2.57362L7.12001 7.66281C7.03193 7.90327 6.84424 8.09285 6.60618 8.18183L1.56788 10.065C0.810705 10.348 0.810707 11.4298 1.56788 11.7128L6.60618 13.5959C6.84424 13.6849 7.03193 13.8745 7.12001 14.115L8.98435 19.2042C9.26453 19.969 10.3355 19.969 10.6156 19.2042L12.48 14.115C12.5681 13.8745 12.7558 13.6849 12.9938 13.5959L15.513 12.6544M15.3 18.6667H18.6M18.6 18.6667H21.9M18.6 18.6667V22M18.6 18.6667V15.3333M18.6 4.22222H20.8M20.8 4.22222H23M20.8 4.22222V6.44444M20.8 4.22222V2" stroke="black" stroke-linecap="round"/>
</svg>
